<svg xmlns="http://www.w3.org/2000/svg" viewBox="0 0 614.23 82.92"><defs><style>.cls-1{fill:#fff;}.cls-2{fill:#fa614b;}.cls-3{fill:#afcaea;}.cls-4{fill:#00c8c7;}</style></defs><title>Displayr_Logo_Rev_Web_RGB</title><g id="Layer_2" data-name="Layer 2"><g id="Layer_1-2" data-name="Layer 1"><g id="Logo"><rect class="cls-1" x="95.9" y="1.15" width="15.09" height="80.62" rx="2.19" ry="2.19"/><path class="cls-1" d="M172.84,34.09c-9.33-3.8-13.59-7.49-13.59-12.9,0-3.69,3.57-8.06,10.13-8.06,6.33,0,15.09,5.76,16,6.33,1.38.92,3.11,0,4-1.38l4.38-6.56a2.85,2.85,0,0,0-.69-3.8,40.54,40.54,0,0,0-23-7.72c-18.31,0-25.91,11.86-25.91,22.11,0,13.59,10.83,20.5,21.65,24.88,9.67,3.92,14.63,7.95,14.63,13.82,0,5-4.49,8.87-10.48,8.87-7.49,0-16.81-6.8-17.39-7.14a2.67,2.67,0,0,0-3.92.81l-4.15,7.14c-1,1.84-.46,2.42.58,3.45,2.3,2.19,10.83,9,25.34,9,16.24,0,26.49-10.94,26.49-22.8C196.91,45.26,184,38.58,172.84,34.09Z"/><path class="cls-1" d="M258.18,1.15H231.11a2.19,2.19,0,0,0-2.19,2.19V79.58a2.19,2.19,0,0,0,2.19,2.19h10.6a2.26,2.26,0,0,0,2.19-2.19V52.52h14.4A25.9,25.9,0,0,0,284,26.6,25.76,25.76,0,0,0,258.18,1.15Zm-.92,37.31H243.9V15.32h13.36c6.45,0,11.86,4.84,11.86,11.17A11.87,11.87,0,0,1,257.25,38.47Z"/><path class="cls-1" d="M358.72,67.95H329.35V3.34a2.27,2.27,0,0,0-2.19-2.19h-10.6a2.19,2.19,0,0,0-2.19,2.19V79.58a2.19,2.19,0,0,0,2.19,2.19h42.15a2.19,2.19,0,0,0,2.19-2.19V70.14A2.19,2.19,0,0,0,358.72,67.95Z"/><path class="cls-1" d="M423.9,1.27a2,2,0,0,0-2-1.27h-1.15a2.07,2.07,0,0,0-2,1.27L383,78.77a2,2,0,0,0,2,3h10a3.47,3.47,0,0,0,3.34-2.3L404,67h34.43l5.64,12.44c.81,1.61,1.61,2.3,3.34,2.3h10a2,2,0,0,0,2-3Zm-14.28,53,11.29-25.34h.35l11.52,25.34Z"/><path class="cls-1" d="M532.63,1.15H520.77a2.29,2.29,0,0,0-1.84,1L500.5,28.68,482.07,2.19a2.29,2.29,0,0,0-1.84-1H468.48a2.13,2.13,0,0,0-1.84,3.34L492.9,43V79.58a2.19,2.19,0,0,0,2.19,2.19h10.59a2.26,2.26,0,0,0,2.19-2.19V42.84l26.6-38.35A2.13,2.13,0,0,0,532.63,1.15Z"/><path class="cls-1" d="M595.23,49.87c10.94-3.11,19-12.44,19-24.07,0-14.05-11.63-24.65-25.68-24.65H560a1.45,1.45,0,0,0-1.5,1.5V80.27a1.52,1.52,0,0,0,1.5,1.5h2.07c1.15,0,1.84-.69,1.84-1.5V50.67h21.19c1.5,0,2.76,0,4.26-.11l16.7,30.17a1.63,1.63,0,0,0,1.61,1h3.57c1.15,0,1.38-1.15.81-2.07Zm-6.91-4H564V6.45H588.2c11.17,0,20.5,8.41,20.5,19.35A20.13,20.13,0,0,1,588.32,45.84Z"/><path class="cls-2" d="M33.68,1.52a40.12,40.12,0,0,0-4.31-.25H2.07A2.17,2.17,0,0,0,0,3.46V61.82H14.86V15.2H28a27.63,27.63,0,0,1,5.7.59V1.52Z"/><path class="cls-3" d="M67.7,34.91H53.16a28.94,28.94,0,0,1,.74,6.55C53.9,56.55,43,67.83,28,67.83H0V79.7a2.17,2.17,0,0,0,2.07,2.19H29.37A40.48,40.48,0,0,0,69.79,41.46a39.49,39.49,0,0,0-.55-6.55Z"/><path class="cls-4" d="M39.82,2.65V17.89a24.6,24.6,0,0,1,11.1,10.88H67.7A40.62,40.62,0,0,0,39.82,2.65Z"/></g></g></g></svg>